<svg xmlns="http://www.w3.org/2000/svg" xmlns:xlink="http://www.w3.org/1999/xlink" width="347" height="347" viewBox="0 0 347 347"><defs><style>.a{fill:#fff;}.b{fill:url(#a);}.c{fill:none;stroke:rgba(0,0,0,0.94);stroke-linecap:round;stroke-width:2px;}.d{opacity:0.83;clip-path:url(#b);}.e,.f{opacity:0.72;}.e{clip-path:url(#c);}.f{clip-path:url(#d);}</style><linearGradient id="a" x1="1" y1="-0.209" x2="0.5" y2="1.074" gradientUnits="objectBoundingBox"><stop offset="0" stop-color="#f9d6bf"/><stop offset="1" stop-color="#f3f1ee" stop-opacity="0"/></linearGradient><clipPath id="b"><rect class="a" width="104" height="31" transform="translate(0.338 0.726)"/></clipPath><clipPath id="c"><rect class="a" width="79" height="22" transform="translate(-0.131 -0.025)"/></clipPath><clipPath id="d"><rect class="a" width="50" height="13" transform="translate(-0.343 0.409)"/></clipPath></defs><g transform="translate(-97.392 -21.346)"><circle class="b" cx="173.5" cy="173.5" r="173.5" transform="translate(97.392 21.346)"/><g transform="translate(234.361 141.346)"><path class="c" d="M1083.485,1205.538c10.14-.818,13.238,5.806,13.238,5.806s4.4-10.244,18.474-10.968" transform="translate(-1083.485 -1163.999)"/><path class="c" d="M1083.485,1203.368c5.878-.474,7.674,3.366,7.674,3.366s2.55-5.938,10.71-6.358" transform="translate(-1074.54 -1182.78)"/><path class="c" d="M1083.485,1202.879c4.918-.4,6.42,2.816,6.42,2.816s2.134-4.969,8.96-5.32" transform="translate(-1041.472 -1200.375)"/><path class="c" d="M1083.485,1202.879c4.918-.4,6.42,2.816,6.42,2.816s2.134-4.969,8.96-5.32" transform="translate(-996.751 -1163.835)"/><path class="c" d="M1083.485,1203.368c5.878-.474,7.674,3.366,7.674,3.366s2.55-5.938,10.71-6.358" transform="translate(-1031.061 -1176.422)"/></g><g class="d" transform="translate(340.054 204.62)"><path class="a" d="M79.75,39.738A24.7,24.7,0,0,1,65.771,44a24.451,24.451,0,0,1-16.782-6.515A17.658,17.658,0,0,1,35.121,44,18.02,18.02,0,0,1,24.9,40.875,15.983,15.983,0,0,1,15.325,44C6.862,44,0,37.612,0,29.73S6.862,15.459,15.325,15.459a16.17,16.17,0,0,1,7.1,1.622,17.8,17.8,0,0,1,12.693-5.189,18.147,18.147,0,0,1,8.618,2.147C47.166,5.824,55.738,0,65.771,0c10.665,0,19.68,6.579,22.617,15.617a16.575,16.575,0,0,1,2.287-.158c8.464,0,15.325,6.39,15.325,14.271S99.139,44,90.675,44A15.856,15.856,0,0,1,79.75,39.738Z" transform="translate(0.338 0.726)"/></g><g class="e" transform="translate(126.523 130.372)"><path class="a" d="M59.437,3.2A18.506,18.506,0,0,0,36.511,4.886,13.129,13.129,0,0,0,26.175,0a13.371,13.371,0,0,0-7.619,2.344A11.862,11.862,0,0,0,11.421,0C5.114,0,0,4.791,0,10.7s5.114,10.7,11.421,10.7a11.988,11.988,0,0,0,5.294-1.217,13.221,13.221,0,0,0,9.46,3.892,13.457,13.457,0,0,0,6.423-1.61A17.625,17.625,0,0,0,49.018,33,17.511,17.511,0,0,0,65.874,21.287a12.276,12.276,0,0,0,1.7.118C73.887,21.406,79,16.614,79,10.7S73.887,0,67.579,0A11.776,11.776,0,0,0,59.437,3.2Z" transform="translate(78.869 32.975) rotate(180)"/></g><g class="f" transform="translate(350.735 110.937)"><path class="a" d="M37.618,1.937A11.962,11.962,0,0,0,31.024,0a11.776,11.776,0,0,0-7.916,2.961A8.454,8.454,0,0,0,16.567,0a8.727,8.727,0,0,0-4.822,1.421A7.73,7.73,0,0,0,7.229,0C3.237,0,0,2.9,0,6.486s3.237,6.487,7.229,6.487a7.866,7.866,0,0,0,3.35-.737,8.558,8.558,0,0,0,5.987,2.359,8.818,8.818,0,0,0,4.065-.976A11.187,11.187,0,0,0,31.024,20c5.031,0,9.283-2.991,10.669-7.1a8.108,8.108,0,0,0,1.079.072c3.993,0,7.229-2.9,7.229-6.487S46.764,0,42.771,0A7.635,7.635,0,0,0,37.618,1.937Z" transform="translate(49.657 20.409) rotate(180)"/></g></g></svg>