<svg xmlns="http://www.w3.org/2000/svg" width="24" height="24" viewBox="0 0 24 24"><defs><style>.a{fill:none;}.b{fill:#dfab9d;}</style></defs><path class="a" d="M0,0H24V24H0Z"/><path class="b" d="M4,20a7.373,7.373,0,0,1,7.5-7.238A7.373,7.373,0,0,1,19,20H17.125A5.529,5.529,0,0,0,11.5,14.571,5.529,5.529,0,0,0,5.875,20Zm7.5-8.143A5.528,5.528,0,0,1,5.875,6.429,5.528,5.528,0,0,1,11.5,1a5.528,5.528,0,0,1,5.625,5.429A5.528,5.528,0,0,1,11.5,11.857Zm0-1.81a3.685,3.685,0,0,0,3.75-3.619A3.685,3.685,0,0,0,11.5,2.81,3.685,3.685,0,0,0,7.75,6.429,3.685,3.685,0,0,0,11.5,10.048Z" transform="translate(1 2)"/></svg>