<svg xmlns="http://www.w3.org/2000/svg" width="24" height="24" viewBox="0 0 24 24"><defs><style>.a{fill:#9b9b9b;}.b{fill:none;}</style></defs><g transform="translate(-120 -152)"><g transform="translate(123 157)"><g transform="translate(0 0)"><path class="a" d="M17.439,1.115c-.069-.092-.145-.176-.222-.261L17,.642a2.816,2.816,0,0,0-.332-.233A2.682,2.682,0,0,0,15.231,0H2.769A2.729,2.729,0,0,0,1.323.416a3.013,3.013,0,0,0-.5.4h0a2.676,2.676,0,0,0-.256.3A2.86,2.86,0,0,0,0,2.824v9.353A2.8,2.8,0,0,0,2.769,15H15.231A2.8,2.8,0,0,0,18,12.176V2.824a2.86,2.86,0,0,0-.561-1.708ZM2.769,1.059H15.231a1.634,1.634,0,0,1,.692.141l-6.688,7a.294.294,0,0,1-.429,0L2.077,1.207a1.594,1.594,0,0,1,.692-.148ZM16.962,12.176a1.748,1.748,0,0,1-1.731,1.765H2.769a1.755,1.755,0,0,1-1.731-1.765V2.824a1.726,1.726,0,0,1,.256-.918l6.715,7a1.366,1.366,0,0,0,1.98,0L16.7,1.892a1.8,1.8,0,0,1,.263.932Z" transform="translate(0 0)"/></g></g><rect class="b" width="24" height="24" transform="translate(120 152)"/></g></svg>