<svg xmlns="http://www.w3.org/2000/svg" width="24" height="24" viewBox="0 0 24 24"><defs><style>.a{fill:#18191a;}.b{fill:none;}</style></defs><g transform="translate(-153 -209)"><g transform="translate(158.07 212.052)"><g transform="translate(0 0)"><path class="a" d="M13.859,21.289H12.772V18.513c0-2.812-2.624-5.074-5.842-5.074s-5.842,2.276-5.842,5.074v2.776H0V18.513c0-3.407,3.11-6.183,6.93-6.183s6.93,2.776,6.93,6.183Z" transform="translate(0 -3.392)"/><path class="a" d="M8.08,7.843A3.929,3.929,0,1,1,10.865,6.7,3.922,3.922,0,0,1,8.08,7.843Zm0-6.756a2.834,2.834,0,1,0,2.834,2.834A2.834,2.834,0,0,0,8.08,1.087Z" transform="translate(-1.15 0)"/></g></g><rect class="b" width="24" height="24" transform="translate(153 209)"/></g></svg>