<svg xmlns="http://www.w3.org/2000/svg" width="24" height="24" viewBox="0 0 24 24"><defs><style>.a{fill:#9b9b9b;}.b{fill:none;}</style></defs><g transform="translate(-94 -306)"><g transform="translate(98 309.01)"><g transform="translate(0 -0.01)"><path class="a" d="M12.533,20.386H3.467A3.34,3.34,0,0,1,0,17.189V11.507a3.34,3.34,0,0,1,3.467-3.2h9.066A3.34,3.34,0,0,1,16,11.507v5.681a3.34,3.34,0,0,1-3.467,3.2ZM3.467,9.32a2.293,2.293,0,0,0-2.372,2.188v5.681a2.286,2.286,0,0,0,2.372,2.188h9.066a2.47,2.47,0,0,0,1.68-.639,2.1,2.1,0,0,0,.693-1.549V11.507A2.286,2.286,0,0,0,12.533,9.32Z" transform="translate(0 -2.386)"/><path class="a" d="M14.241,6.48H13.133V4.913a3.913,3.913,0,0,0-3.973-3.85,3.913,3.913,0,0,0-3.973,3.85V6.48H4.08V4.913A4.924,4.924,0,0,1,7.214.365a5.2,5.2,0,0,1,5.535,1.063,4.79,4.79,0,0,1,1.477,3.478Z" transform="translate(-1.161 0.01)"/></g></g><rect class="b" width="24" height="24" transform="translate(94 306)"/></g></svg>